<svg xmlns="http://www.w3.org/2000/svg" height="1024" stroke-miterlimit="10" width="1024" fill-rule="nonzero" stroke-linecap="round" stroke-linejoin="round" xmlns:v="https://vecta.io/nano"><defs><linearGradient gradientUnits="userSpaceOnUse" id="A" x1="329.922" x2="461.736" y1="512.579" y2="512.579"><stop offset="0" stop-color="#2ab4e2"/><stop offset="1" stop-color="#1721a3"/><stop offset="1" stop-color="#4f1111" stop-opacity="0"/></linearGradient><linearGradient gradientUnits="userSpaceOnUse" id="B" x1="161.838" x2="512.395" y1="196.683" y2="891.676"><stop offset="0" stop-color="#2ab4e2"/><stop offset="1" stop-color="#1721a3"/><stop offset="1" stop-color="#4f1111" stop-opacity="0"/></linearGradient><linearGradient gradientUnits="userSpaceOnUse" id="C" x1="554.469" x2="555.434" y1="168.792" y2="168.792"><stop offset="0" stop-color="#2ab4e2"/><stop offset="1" stop-color="#1721a3"/><stop offset="1" stop-color="#4f1111" stop-opacity="0"/></linearGradient><linearGradient gradientUnits="userSpaceOnUse" id="D" x1="757.92" x2="791.119" y1="302.474" y2="797.678"><stop offset="0" stop-color="#2ab4e2"/><stop offset="1" stop-color="#1721a3"/><stop offset="1" stop-color="#4f1111" stop-opacity="0"/></linearGradient></defs><path d="M461.302 714.778l.436-333.281-131.814-73.269 2.869 334.609 125.84 74.097" fill="url(#A)"/><path d="M329.906 294.906c-.877.03-1.768.119-2.625.313-.947.214-1.897.503-2.781.906-.897.409-1.737.946-2.531 1.531-.738.544-1.413 1.167-2.031 1.844-.993 1.087-1.744 2.323-2.344 3.656-1.588 3.529-1.121 7.859-1.094 11.625l.031 6.313.063 8.5.718 99.75 1.25 159.687.344 41.563.063 7.875c.017 2.105-.119 4.445.281 6.531.381 1.988 1.146 3.883 2.281 5.562 2.063 3.053 5.078 4.642 8.125 6.438l5.469 3.219 24.25 14.281 92.25 54.375c6.521 3.84 14.881 1.715 18.813-4.719 2.439-2.376 3.963-5.7 3.968-9.375l.406-243.75.157-67.156.031-16.781c.011-4.191.394-8.072-1.75-11.938-2.446-4.409-6.857-6.266-11.031-8.594l-9.188-5.124-42.375-23.657-60.031-33.437-7.063-3.969-5.312-2.937c-.943-.526-1.903-1.107-2.906-1.5-1.726-.678-3.575-1.095-5.438-1.032zm13.719 36.344l5.437 3 49.657 27.5 37.937 21.031 11.813 6.563v5.562 24.625l-.063 72.594-.187 202.625-66.313-39-27.625-16.281-7.75-4.594-.125-11.25-.312-34.813-.969-105.312L344 366.688l-.375-35.438zm255.063-35.75c-7.643-.189-13.999 5.857-14.188 13.5a16.66 16.66 0 0 0-.031.5c-.018.448-.014.896-.031 1.344l-.126 2.844-.343 8.937-.875 25.875-1.656 79.5c-.398 41.084-.222 82.203 1.75 123.25.714 14.874 1.697 29.748 3.218 44.562.597 5.812 1.273 11.627 2.125 17.407.559 3.787 1.185 7.577 2.031 11.312 2.613 11.522 7.333 22.593 14.407 32.094 12.825 17.226 32.763 28.196 54.312 28.781 7.236.192 13.277-5.514 13.469-12.75s-5.515-13.277-12.75-13.468a41.13 41.13 0 0 1-14.031-2.844c-3.543-1.393-6.892-3.26-9.969-5.5a45.86 45.86 0 0 1-7.156-6.469c-6.007-6.703-9.931-15.008-12.125-23.687-1.519-6.007-2.284-12.204-3.031-18.344-1.126-9.246-1.907-18.521-2.532-27.813-2.002-29.768-2.517-59.641-2.625-89.469-.148-41.085.613-82.182 1.813-123.25L611.5 326.5l.688-16.812c.188-7.643-5.858-13.999-13.5-14.188z" fill="#03195d"/><g stroke="#03195d" stroke-width="26.07"><path d="M282.068 272.775l-114.08-63.906-1.15.232.408 111.455 2.153 446.553-.092.18 286.396 162.904s81.546-33.997 103.026-81.495l.189.182-229.464-136.294s-40.277-27.872-41.464-49.956c-.336-6.258-.976-42.334-.976-42.334l.016-.514-4.679-347.03" fill="url(#B)" stroke-linecap="butt"/><path d="M166.981 208.113l114.354 65.155 273.179-156.581-113.301-65.332-274.232 156.758z" fill="#2ab3e3"/></g><path d="M554.47 117.177l.965 103.234" fill="url(#C)"/><path d="M554.344 104.062c-7.238.068-13.037 6.013-12.969 13.25l.063 76 .156 27.219c.071 7.645 6.324 13.791 13.968 13.719s13.791-6.324 13.719-13.969l-.343-27.219-1.376-76c-.067-7.237-5.981-13.067-13.218-13z" fill="#03195d"/><path d="M329.545 308.612l138.051-82.99 130.379 81.693-136.399 76.036-132.031-74.739zm303.571-206.813l-3.707 151.531s-2.115 5.536 13.605 19.553c10.337 9.216 47.393 16.424 62.12 30.917 7.668 7.547 127.661-84.931 127.661-84.931l-199.679-117.07z" stroke="#03195d" stroke-width="26.07" fill="#2ab3e3"/><path d="M709.408 305.526c-.008.979 9.949 223.649-4.111 307.447-6.667 39.735-35.85 55.249-57.191 55.52-8.701.111-21.752-5.54-21.752-5.54s-24.948 33.91-24.563 56.458c.382 22.286 7.205 37.168 15.56 44.645 9.564 11.637 66.927 39.105 66.927 39.105l146.887-84.85 1.63-499.442-123.235 87.027" fill="url(#D)"/><path d="M832.312 205.312c-.901 0-1.802.142-2.687.313-3.691.715-7.407 3.789-10.406 5.906l-5.25 3.719-6.531 4.625-7.438 5.25-98.438 69.469c-5.096 3.599-6.954 9.993-5.093 15.625l.656 17.312 1.313 43.281c1.333 52.479 1.91 105.021.343 157.5-.611 20.461-1.636 40.945-3.719 61.313-.547 5.357-1.156 10.703-1.937 16.031-1.009 6.886-2.364 13.679-5.063 20.125-5.34 12.756-15.284 23.101-28.562 27.5-3.111 1.031-6.354 1.705-9.625 1.938-.971.069-1.965.116-2.937.031-3.657-.319-7.27-1.456-10.719-2.656-4.22-1.468-7.664-3.566-12.469-2.594-.895.181-1.722.423-2.562.781-3.747 1.596-5.445 4.208-7.563 7.281l-2.844 4.219c-4.977 7.616-9.57 15.526-13.406 23.781-3.779 8.134-7.025 16.707-8.313 25.626-.88 6.097-.554 12.299.094 18.406 1.631 15.368 6.614 31.341 17.813 42.468.322.321.668.628 1 .938 1.419 1.686 3.176 3.187 4.875 4.562 3.224 2.611 6.668 4.95 10.156 7.188 8.445 5.419 17.242 10.314 26.094 15.031L669.875 811l6.437 3.188L678 815c.113.055.337.213.469.219 3.515.147 7.045.486 10.562.437.497-.007.893-.386 1.344-.594.976-.45 1.946-1.089 2.875-1.624l7.594-4.376 27.812-16.031 76.282-43.969 23.124-13.343 6.907-3.969c1.988-1.146 3.951-2.17 5.593-3.844 1.126-1.147 1.985-2.439 2.688-3.875 1.763-3.603 1.452-7.587 1.469-11.469l.031-7.624.031-7.438.313-75.469 1.156-300.843.281-83.844.031-8.375.032-6.688c.006-1.74.096-3.567-.219-5.281-.413-2.249-1.307-4.455-2.75-6.25-.611-.759-1.278-1.506-2.031-2.125-.867-.713-1.806-1.347-2.813-1.844-1.043-.514-2.147-.9-3.281-1.156-1.046-.236-2.115-.312-3.188-.313zm-13.406 40.282l-.062 16.812-.25 83.219-.688 248.531-.218 92.375-.032 23.938-7.062 4.093L785.688 729l-76.844 44.469-21.406 12.406L683.75 788l-5.5-2.719-21.375-11.125c-7.113-3.868-14.194-7.872-20.969-12.312-2.638-1.73-5.325-3.486-7.656-5.625-.551-.505-1.002-1.089-1.531-1.625-1.554-1.572-2.904-2.91-4.125-4.782-4.52-6.925-6.386-15.497-7.156-23.624-.412-4.348-.614-8.67.281-12.969 1.463-7.03 4.445-13.755 7.687-20.125 2.494-4.9 5.319-9.627 8.282-14.282 3.738 1.134 7.53 2.131 11.406 2.594 5.231.625 10.552.208 15.718-.75 9.556-1.771 18.708-5.635 26.719-11.125 4.756-3.258 9.12-7.083 12.969-11.375 8.222-9.167 13.983-20.314 17.344-32.125 1.681-5.91 2.676-11.986 3.531-18.062a409.09 409.09 0 0 0 1.875-15.688c1.548-15.27 2.491-30.606 3.156-45.937 1.034-23.804 1.397-47.614 1.5-71.438L725 384.531l-1.5-53.25-.656-17.75c-.001-.021.001-.041 0-.062l76.687-54.188 19.375-13.687z" fill="#03195d"/></svg>